# xmcd CD database file
#
# Track frame offsets:
#	225
#	1197
#	17950
#	30312
#	46990
#	60315
#	78277
#	109455
#	126543
#	135684
#	146333
#	158649
#	178995
#	208961
#	213777
#	233182
#	251002
#
# Disc length: 3542 seconds
#
# Revision: 2
# Processed by: cddbd v1.5.2PL0 Copyright (c) Steve Scherf et al.
# Submitted via: CDex 1.51
#
DISCID=eb0dd311
DTITLE=COP - XXX 1978-2008 (disk 2)
DYEAR=2009
DGENRE=Bluegrass
TTITLE0=uvod 2/2
TTITLE1=Mavej vsem (Saving On The Strings)
TTITLE2=Hrac
TTITLE3=Pulnoc
TTITLE4=Ma dati dal
TTITLE5=Klic ke vzpominkam
TTITLE6=Bic (Reach)
TTITLE7=Tajny prani (In Crowd)
TTITLE8=Baby (I'll Love Nobody But You)
TTITLE9=podekovani
TTITLE10=Harley (White Freightliner Blues)
TTITLE11=podekovani
TTITLE12=Par minut (Wait A Minute)
TTITLE13=predstaveni kapely
TTITLE14=Irish (Walk In The Irish Rain)
TTITLE15=Stopy kol (The Old Witch)
TTITLE16=Tennessee waltz (Tennessee Waltz)
EXTD=YEAR: 2009
EXTT0=
EXTT1=
EXTT2=
EXTT3=
EXTT4=
EXTT5=
EXTT6=
EXTT7=
EXTT8=
EXTT9=
EXTT10=
EXTT11=
EXTT12=
EXTT13=
EXTT14=
EXTT15=
EXTT16=
PLAYORDER=
